<?xml version="1.0" standalone="no"?>
<!DOCTYPE svg PUBLIC "-//W3C//DTD SVG 20010904//EN"
 "http://www.w3.org/TR/2001/REC-SVG-20010904/DTD/svg10.dtd">
<svg version="1.0" xmlns="http://www.w3.org/2000/svg"
 width="260.000000pt" height="260.000000pt" viewBox="0 0 260.000000 260.000000"
 preserveAspectRatio="xMidYMid meet">
<metadata>
Created by potrace 1.11, written by Peter Selinger 2001-2013
</metadata>
<g transform="translate(0.000000,260.000000) scale(0.100000,-0.100000)"
fill="#000000" stroke="none">
<path d="M1218 2595 c-2 -2 -24 -6 -50 -9 -88 -12 -240 -69 -276 -103 -7 -7
-18 -13 -24 -13 -6 0 -32 -17 -57 -37 -212 -171 -321 -393 -319 -651 2 -252
110 -472 309 -635 25 -20 51 -37 58 -37 6 0 11 -4 11 -8 0 -5 24 -19 53 -33
28 -13 55 -28 59 -34 4 -5 8 -7 8 -3 0 4 17 0 37 -8 35 -15 49 -19 98 -29 11
-2 34 -7 50 -10 39 -9 211 -8 255 0 138 25 277 86 373 163 126 102 252 293
281 428 4 16 9 40 12 54 4 14 8 70 11 126 18 378 -234 718 -605 815 -64 17
-273 34 -284 24z m385 -435 c14 -16 24 -35 23 -42 -6 -36 -31 -108 -38 -108
-4 0 -8 -5 -8 -11 0 -6 -29 -79 -66 -163 l-65 -151 22 -39 c33 -59 39 -101 23
-157 -37 -125 -173 -183 -291 -124 -35 17 -93 89 -93 115 0 9 -3 20 -7 24 -11
11 -2 88 14 121 32 62 92 109 153 118 26 4 35 16 76 112 14 33 34 78 44 100 9
22 32 75 50 118 18 43 42 87 53 98 32 29 80 25 110 -11z"/>
<path d="M300 2268 c-65 -6 -160 -40 -160 -56 0 -5 -10 -14 -23 -21 -31 -16
-84 -96 -100 -151 -19 -64 -17 -1755 2 -1815 28 -88 121 -182 206 -207 30 -9
302 -12 1085 -13 l1045 0 58 30 c68 34 140 109 158 163 6 20 15 42 19 47 4 6
7 408 6 895 l-1 885 -26 55 c-31 66 -90 127 -152 158 -52 26 -93 33 -187 34
-99 0 -96 1 -77 -20 10 -10 17 -22 17 -25 0 -4 9 -26 19 -50 21 -44 50 -128
57 -162 2 -11 7 -33 10 -50 2 -16 7 -43 10 -60 9 -47 4 -280 -6 -280 -1 0 -3
-9 -5 -20 -5 -38 -25 -113 -36 -141 -7 -16 -13 -31 -14 -34 -7 -30 -31 -80
-37 -80 -4 0 -8 -6 -8 -13 0 -26 -104 -168 -169 -232 -161 -158 -328 -245
-541 -282 -51 -8 -235 -9 -284 -1 -112 18 -170 36 -264 79 -35 16 -67 29 -72
29 -6 0 -10 5 -10 10 0 6 -6 10 -14 10 -8 0 -21 6 -28 12 -7 7 -30 25 -51 39
-69 48 -161 142 -221 227 -58 82 -127 225 -141 292 -2 8 -4 15 -5 15 -1 0 -3
9 -5 20 -2 11 -7 36 -11 55 -15 74 -20 232 -9 297 20 124 70 279 111 340 11
18 11 23 2 24 -67 4 -92 3 -148 -3z"/>
</g>
</svg>
